<?xml version="1.0" encoding="UTF-8"?>
<svg xmlns="http://www.w3.org/2000/svg" xmlns:xlink="http://www.w3.org/1999/xlink" width="36px" height="27px" viewBox="0 0 36 27" version="1.1">
<g id="surface1">
<path style=" stroke:none;fill-rule:evenodd;fill:rgb(5.098039%,37.647059%,43.529412%);fill-opacity:1;" d="M 0.5 13.5 C 0.5 13.25 0.632812 13.011719 0.867188 12.835938 C 1.101562 12.660156 1.417969 12.5625 1.75 12.5625 L 31.234375 12.5625 L 23.363281 6.664062 C 23.128906 6.488281 23 6.25 23 6 C 23 5.75 23.128906 5.511719 23.363281 5.335938 C 23.601562 5.160156 23.917969 5.0625 24.25 5.0625 C 24.582031 5.0625 24.898438 5.160156 25.136719 5.335938 L 35.136719 12.835938 C 35.25 12.921875 35.34375 13.027344 35.40625 13.140625 C 35.46875 13.253906 35.503906 13.375 35.503906 13.5 C 35.503906 13.625 35.46875 13.746094 35.40625 13.859375 C 35.34375 13.972656 35.25 14.078125 35.136719 14.164062 L 25.136719 21.664062 C 24.898438 21.839844 24.582031 21.9375 24.25 21.9375 C 23.917969 21.9375 23.601562 21.839844 23.363281 21.664062 C 23.128906 21.488281 23 21.25 23 21 C 23 20.75 23.128906 20.511719 23.363281 20.335938 L 31.234375 14.4375 L 1.75 14.4375 C 1.417969 14.4375 1.101562 14.339844 0.867188 14.164062 C 0.632812 13.988281 0.5 13.75 0.5 13.5 Z M 0.5 13.5 "/>
</g>
</svg>
